<svg width="184" height="184" viewBox="0 0 184 184" fill="none" xmlns="http://www.w3.org/2000/svg">
<path d="M184 92C184 41.1898 142.81 0 92 0C41.1898 0 0 41.1898 0 92C0 142.81 41.1898 184 92 184C142.81 184 184 142.81 184 92Z" fill="#68DBF2"/>
<path d="M68.4943 84.5505C74.1412 84.5505 78.7191 79.9726 78.7191 74.3258C78.7191 68.679 74.1412 64.1011 68.4943 64.1011C62.8474 64.1011 58.2697 68.679 58.2697 74.3258C58.2697 79.9726 62.8474 84.5505 68.4943 84.5505Z" fill="#F0BD70"/>
<path d="M68.4944 82.5056H104.281V134.306C104.281 134.306 96.6123 138.742 86.3877 138.742C76.163 138.742 68.4944 131.499 68.4944 131.499V82.5056Z" fill="#F0BD70"/>
<path d="M103.882 109.592C103.882 121.43 102.042 120.309 90.0757 120.309C78.1103 120.309 72.5876 110.713 72.5876 98.8755C72.5876 87.0384 72.1334 76.3708 81.7922 76.3708C109.099 77.4176 103.882 97.755 103.882 109.592Z" fill="#E9B05B"/>
<path d="M127.037 72.5673C127.037 91.2407 134.728 114.202 101.194 114.202C67.6607 114.202 67.6607 91.2407 67.6607 72.5673C62.5938 50.3853 63.6371 24.2246 98.0645 24.2246C132.492 24.2246 127.037 53.8944 127.037 72.5673Z" fill="#FFCB7E"/>
<path d="M110.415 82.5056H108.371C107.241 82.5056 106.326 83.4213 106.326 84.5508C106.326 85.6798 107.241 86.5955 108.371 86.5955H110.415C111.545 86.5955 112.461 85.6798 112.461 84.5508C112.461 83.4213 111.545 82.5056 110.415 82.5056Z" fill="#F0BD70"/>
<path d="M110.185 122.382H64.6345C54.3429 122.382 46 130.801 46 141.187V151.634C46 162.019 54.3429 170.438 64.6345 170.438H110.185C120.477 170.438 128.82 162.019 128.82 151.634V141.187C128.82 130.801 120.477 122.382 110.185 122.382Z" fill="#E05A33"/>
<path d="M66.4495 118.292H106.326V124.427C106.326 124.427 95.8321 126.472 86.3876 126.472C76.9432 126.472 66.4495 124.427 66.4495 124.427V118.292Z" fill="#E05A33"/>
<path d="M66.4495 118.292H106.326V122.382C106.326 122.382 100.029 125.45 86.3876 125.45C72.7457 125.45 66.4495 122.382 66.4495 122.382V118.292Z" fill="#C53926"/>
<path d="M65.4269 120.337C65.4269 118.078 67.3037 116.247 69.619 116.247H103.156C105.471 116.247 107.348 118.078 107.348 120.337C107.348 120.337 96.8679 122.382 86.3876 122.382C75.9073 122.382 65.4269 120.337 65.4269 120.337Z" fill="#E05A33"/>
<path fill-rule="evenodd" clip-rule="evenodd" d="M91.2019 51.7715C102.829 55.6706 118.946 61.0755 135.827 44.0253C144.115 35.6532 106.816 0.0717136 76.7696 19.9554C53.2851 23.4696 54.6272 37.683 55.6631 48.6523C55.8612 50.7494 56.0479 52.7279 56.0479 54.4903C56.0479 55.6058 56.1924 56.4403 56.463 57.0401C56.13 59.6211 56.0479 62.2036 56.0479 63.909C56.0479 68.5325 59.759 72.2809 64.3366 72.2809C68.9142 72.2809 72.6253 68.5325 72.6253 63.909C77.2029 63.909 80.914 60.1607 80.914 55.5367C80.914 54.8128 80.823 54.1099 80.652 53.4396C80.7389 53.4424 80.8262 53.4438 80.914 53.4438C83.4499 53.4438 85.7197 52.2938 87.24 50.4815C88.4927 50.8633 89.8156 51.3067 91.2019 51.7715Z" fill="#1B0B47"/>
<path d="M90.9888 93.7526C90.9888 92.6235 91.9333 91.7078 93.0991 91.7078H112.395C113.561 91.7078 114.506 92.6235 114.506 93.7526C114.506 99.3994 109.781 103.977 103.953 103.977H101.541C95.713 103.977 90.9888 99.3994 90.9888 93.7526Z" fill="#66253C"/>
<path fill-rule="evenodd" clip-rule="evenodd" d="M107.842 103.33C106.709 103.749 105.488 103.977 104.215 103.977H101.753C95.9476 103.977 91.2151 99.2228 90.9888 93.2688C92.6348 92.631 95.0779 92.7042 97.4898 92.7768C98.2562 92.7997 99.0191 92.8226 99.7523 92.8226C104.512 92.8226 108.371 96.3185 108.371 100.631C108.371 101.579 108.184 102.488 107.842 103.33Z" fill="#B03E67"/>
<path d="M93.0337 91.7078H114.506V93.7525C114.506 94.882 113.544 95.7977 112.359 95.7977H95.1812C93.9951 95.7977 93.0337 94.882 93.0337 93.7525V91.7078Z" fill="white"/>
<path d="M100.191 75.3483C100.191 73.6541 98.5891 72.281 96.6126 72.281C94.6361 72.281 93.0337 73.6541 93.0337 75.3483V77.3931C93.0337 79.0872 94.6361 80.4608 96.6126 80.4608C98.5891 80.4608 100.191 79.0872 100.191 77.3931V75.3483Z" fill="#1B0B47"/>
<path d="M120.64 75.3483C120.64 73.6541 119.267 72.281 117.573 72.281C115.879 72.281 114.506 73.6541 114.506 75.3483V77.3931C114.506 79.0872 115.879 80.4608 117.573 80.4608C119.267 80.4608 120.64 79.0872 120.64 77.3931V75.3483Z" fill="#1B0B47"/>
</svg>
