<svg width="24" height="24" viewBox="0 0 24 24" fill="none" xmlns="http://www.w3.org/2000/svg">
<path d="M2.05 15.279C2.067 15.388 2.075 15.447 2.075 15.447L2.101 15.441C2.535 17.474 4.338 19 6.5 19C8.985 19 11 16.985 11 14.5C11 12.015 8.985 10 6.5 10C6.277 10 6.063 10.034 5.85 10.065C5.919 9.833 5.99 9.597 6.104 9.385C6.218 9.077 6.396 8.81 6.573 8.541C6.721 8.25 6.982 8.053 7.174 7.804C7.375 7.562 7.649 7.401 7.866 7.2C8.079 6.99 8.358 6.885 8.58 6.737C8.812 6.604 9.014 6.457 9.23 6.387C9.438 6.301 9.62 6.227 9.769 6.165C10.071 6.04 10.243 5.968 10.243 5.968L9.759 4.029C9.759 4.029 9.541 4.081 9.162 4.173C8.971 4.221 8.738 4.277 8.473 4.344C8.202 4.394 7.913 4.531 7.591 4.656C7.274 4.799 6.905 4.894 6.563 5.123C6.219 5.341 5.822 5.523 5.472 5.815C5.133 6.116 4.724 6.377 4.422 6.759C4.092 7.117 3.766 7.493 3.513 7.921C3.22 8.329 3.021 8.777 2.811 9.22C2.621 9.663 2.468 10.116 2.343 10.556C2.106 11.438 2 12.276 1.959 12.993C1.925 13.711 1.945 14.308 1.987 14.74C2.002 14.944 2.029 15.143 2.05 15.279ZM13.05 15.279C13.067 15.388 13.075 15.447 13.075 15.447L13.101 15.441C13.535 17.474 15.338 19 17.5 19C19.985 19 22 16.985 22 14.5C22 12.015 19.985 10 17.5 10C17.277 10 17.063 10.034 16.85 10.065C16.919 9.833 16.99 9.597 17.104 9.385C17.218 9.077 17.396 8.81 17.573 8.541C17.721 8.25 17.982 8.053 18.174 7.804C18.375 7.562 18.649 7.401 18.866 7.2C19.079 6.99 19.358 6.885 19.58 6.737C19.812 6.604 20.014 6.457 20.23 6.387C20.438 6.301 20.62 6.227 20.769 6.165C21.07 6.042 21.242 5.97 21.242 5.97L20.758 4.031C20.758 4.031 20.54 4.083 20.161 4.175C19.97 4.223 19.737 4.279 19.472 4.346C19.201 4.396 18.912 4.533 18.59 4.658C18.273 4.801 17.904 4.896 17.562 5.125C17.218 5.343 16.821 5.525 16.471 5.817C16.132 6.118 15.723 6.379 15.421 6.761C15.091 7.119 14.765 7.495 14.512 7.923C14.219 8.331 14.02 8.779 13.81 9.222C13.62 9.665 13.467 10.118 13.342 10.558C13.105 11.44 12.999 12.278 12.958 12.995C12.924 13.713 12.944 14.31 12.986 14.742C13.002 14.944 13.029 15.143 13.05 15.279Z" fill="black"/>
</svg>
