<svg width="184" height="184" viewBox="0 0 184 184" fill="none" xmlns="http://www.w3.org/2000/svg">
<path d="M184 92C184 41.1899 142.81 0 92 0C41.1899 0 0 41.1899 0 92C0 142.81 41.1899 184 92 184C142.81 184 184 142.81 184 92Z" fill="#F16063"/>
<path d="M71.9301 85.9552C77.6866 85.9552 82.3529 81.2889 82.3529 75.5324C82.3529 69.776 77.6866 65.1096 71.9301 65.1096C66.1737 65.1096 61.5073 69.776 61.5073 75.5324C61.5073 81.2889 66.1737 85.9552 71.9301 85.9552Z" fill="#EAC0B3"/>
<path d="M71.9302 83.8708H107.368V135.714C107.368 135.714 99.7735 140.154 89.6489 140.154C79.5244 140.154 71.9302 132.906 71.9302 132.906V83.8708Z" fill="#EAC0B3"/>
<path d="M106.974 109.119C106.974 120.344 105.16 119.281 93.355 119.281C81.5503 119.281 76.1032 110.182 76.1032 98.9567C76.1032 87.7334 75.6551 77.6172 85.1816 77.6172C112.12 78.6094 106.974 97.8935 106.974 109.119Z" fill="#C99688"/>
<path d="M130.06 73.6567C130.06 92.2551 127.171 115.125 104.241 115.125C81.3109 115.125 70.738 92.2551 70.738 73.6567C65.6767 51.5604 66.719 25.5034 101.114 25.5034C135.509 25.5034 130.06 55.0561 130.06 73.6567Z" fill="#F5D0C5"/>
<path d="M113.621 83.8708H111.537C110.385 83.8708 109.452 84.8042 109.452 85.9554C109.452 87.1066 110.385 88.04 111.537 88.04H113.621C114.772 88.04 115.706 87.1066 115.706 85.9554C115.706 84.8042 114.772 83.8708 113.621 83.8708Z" fill="#EAC0B3"/>
<path d="M113.621 123.478H67.761C57.3996 123.478 49 131.877 49 142.239V152.661C49 163.023 57.3996 171.422 67.761 171.422H113.621C123.983 171.422 132.382 163.023 132.382 152.661V142.239C132.382 131.877 123.983 123.478 113.621 123.478Z" fill="#3633E0"/>
<path d="M69.8455 119.309H109.452V125.562C109.452 125.562 99.0293 127.647 89.6488 127.647C80.2682 127.647 69.8455 125.562 69.8455 125.562V119.309Z" fill="#3633E0"/>
<path d="M69.8455 119.309H109.452V123.478C109.452 123.478 103.198 126.605 89.6488 126.605C76.0991 126.605 69.8455 123.478 69.8455 123.478V119.309Z" fill="#362ABC"/>
<path d="M68.8033 121.393C68.8033 120.287 69.2425 119.227 70.0243 118.445C70.8062 117.663 71.8668 117.224 72.9725 117.224H106.325C107.431 117.224 108.492 117.663 109.273 118.445C110.055 119.227 110.494 120.287 110.494 121.393C110.494 121.393 100.072 123.478 89.6489 123.478C79.2261 123.478 68.8033 121.393 68.8033 121.393Z" fill="#3633E0"/>
<path fill-rule="evenodd" clip-rule="evenodd" d="M134.467 50.518C134.466 40.6575 130.583 31.1938 123.659 24.1734C116.735 17.1531 107.326 13.1406 97.466 13.0036C87.6066 12.8667 78.0894 16.6163 70.9727 23.4415C63.8563 30.2669 59.7124 39.6191 59.4374 49.4757H59.4229V133.9H82.353V70.5236C87.533 69.5272 96.4863 67.3342 107.801 62.694C119.191 58.0224 126.297 53.6073 130.039 50.9432C130.544 56.2046 130.369 61.6995 130.206 66.8067C130.131 69.1956 130.058 71.497 130.058 73.6546C130.058 74.5051 130.042 75.3598 130.006 76.2164C130.488 76.0644 130.938 75.8976 131.338 75.7161C134.465 74.2903 134.465 72.3872 134.465 72.3872V50.518H134.467ZM65.6765 67.1944C64.1798 68.3142 63.013 69.8171 62.2995 71.545C61.4144 73.683 61.2657 76.0546 61.8772 78.2862C62.4885 80.5178 63.8252 82.4826 65.6765 83.8709V67.1944Z" fill="#1B0B47"/>
<path d="M94.7124 94.2935C94.7124 93.7407 94.932 93.2104 95.3228 92.8196C95.7138 92.4286 96.2441 92.209 96.797 92.209H115.856C116.409 92.209 116.939 92.4286 117.33 92.8196C117.721 93.2104 117.94 93.7407 117.94 94.2935C117.94 97.0579 116.842 99.7089 114.888 101.664C112.933 103.618 110.282 104.716 107.518 104.716H105.135C102.371 104.716 99.7198 103.618 97.765 101.664C95.8105 99.7089 94.7124 97.0579 94.7124 94.2935Z" fill="#66253C"/>
<path fill-rule="evenodd" clip-rule="evenodd" d="M111.026 104.112C109.9 104.514 108.713 104.718 107.518 104.717H105.135C102.443 104.717 99.8551 103.675 97.9137 101.81C95.9726 99.9447 94.8283 97.401 94.7205 94.7108C96.3131 94.1146 98.6769 94.1835 101.01 94.2522C101.752 94.273 102.49 94.2939 103.198 94.2939C107.805 94.2939 111.537 97.5605 111.537 101.59C111.537 102.476 111.355 103.326 111.026 104.112Z" fill="#B03E67"/>
<path d="M96.9448 92.209H117.79V94.2935C117.79 94.8464 117.571 95.3767 117.18 95.7675C116.789 96.1585 116.259 96.3781 115.706 96.3781H99.0294C98.4766 96.3781 97.9462 96.1585 97.5555 95.7675C97.1644 95.3767 96.9448 94.8464 96.9448 94.2935V92.209Z" fill="white"/>
<path d="M103.198 76.5748C103.198 74.848 101.798 73.448 100.072 73.448C98.3448 73.448 96.9448 74.848 96.9448 76.5748V78.6594C96.9448 80.3863 98.3448 81.7862 100.072 81.7862C101.798 81.7862 103.198 80.3863 103.198 78.6594V76.5748Z" fill="#1B0B47"/>
<path d="M124.044 76.5748C124.044 74.848 122.644 73.448 120.917 73.448C119.19 73.448 117.79 74.848 117.79 76.5748V78.6594C117.79 80.3863 119.19 81.7862 120.917 81.7862C122.644 81.7862 124.044 80.3863 124.044 78.6594V76.5748Z" fill="#1B0B47"/>
</svg>
