<svg width="300" height="300" viewBox="0 0 300 300" fill="none" xmlns="http://www.w3.org/2000/svg">
<rect width="300" height="300" fill="#4CAF50"/>
<path d="M92.7334 152.267C87.2106 152.267 82.7334 156.744 82.7334 162.267L82.7334 192.133V226.229C82.7334 229.8 84.6382 233.101 87.7306 234.887L146.731 268.976C149.826 270.765 153.641 270.765 156.736 268.976L215.736 234.887C218.829 233.101 220.733 229.8 220.733 226.229L220.733 162.267C220.733 156.744 216.256 152.267 210.733 152.267L151.733 152.267H92.7334Z" fill="white"/>
<path fill-rule="evenodd" clip-rule="evenodd" d="M154.6 87.9275C154.6 77.6033 149.764 67.7019 141.156 60.4016C132.548 53.1012 120.873 48.9999 108.7 48.9999H73V79.2769C73 89.6012 77.8359 99.5026 86.4438 106.803C95.0517 114.103 106.727 118.205 118.9 118.205H144.4V178.759H154.6V144.156H180.1C192.273 144.156 203.948 140.055 212.556 132.755C221.164 125.454 226 115.553 226 105.229V74.9516H190.3C175.877 74.9516 163.015 80.5918 154.6 89.4068V87.9275ZM142.911 102.166C142.911 102.166 117.526 80.6812 112.311 76.2146C107.096 71.748 100.647 78.4921 105.089 82.3392C109.532 86.1864 135.689 108.291 135.689 108.291L142.911 102.166ZM163.311 134.243C163.311 134.243 192.899 109.168 193.911 108.291C194.923 107.414 195 106.414 194.5 105.414C194 104.414 193.5 103.734 192.615 102.914C191.73 102.094 190.5 101.671 190 101.414C189.5 101.157 187.983 100.914 186.689 102.166C185.395 103.419 156.089 128.118 156.089 128.118L163.311 134.243Z" fill="white"/>
<path d="M125 198C126.167 191.667 131.6 179 144 179" stroke="black" stroke-width="5" stroke-linecap="round"/>
<path d="M134.5 216.5C134.5 195.944 146.5 179.5 146.5 179.5" stroke="black" stroke-width="5" stroke-linecap="round"/>
<path d="M150.5 180.5C150.5 200.5 150.5 207.5 150.5 234.5" stroke="black" stroke-width="5" stroke-linecap="round"/>
<path d="M165.5 215.5C165.5 195.5 153.5 179.5 153.5 179.5" stroke="black" stroke-width="5" stroke-linecap="round"/>
<path d="M175.5 198.5C174.333 192.167 168.9 179.5 156.5 179.5" stroke="black" stroke-width="5" stroke-linecap="round"/>
<circle cx="107" cy="173" r="3" fill="black"/>
<circle cx="108.5" cy="210.5" r="7.5" fill="black"/>
<circle cx="162.5" cy="249.5" r="7.5" fill="black"/>
<circle cx="178" cy="224" r="4" fill="black"/>
<circle cx="177.5" cy="171.5" r="7.5" fill="black"/>
<path d="M204 198.342C204 201.655 201.314 204.342 198 204.342C194.686 204.342 192 201.655 192 198.342C192 195.028 194.686 192.342 198 192.342C201.314 192.342 204 195.028 204 198.342Z" fill="black"/>
<circle cx="128" cy="238" r="4" fill="black"/>
<path d="M191.505 63.4191C188.322 67.7616 183.991 71.1445 178.996 73.1889L177.978 73.6107C172.996 75.4597 167.415 76.1236 161.419 75.5256L179.686 32.0128C179.883 31.3743 179.834 30.6874 179.549 30.0857C179.264 29.484 178.763 29.0105 178.144 28.7574C177.525 28.5042 176.832 28.4895 176.2 28.7161C175.568 28.9427 175.042 29.3943 174.724 29.9832L156.501 73.5138C151.833 69.7498 148.36 65.3827 146.16 60.5961C143.759 55.4009 142.968 49.6046 143.887 43.9418C146.478 27.4225 162.415 12.5771 186.527 4.20002L188.887 3.19995L189.791 5.53531C200.849 28.2978 201.495 49.9265 191.505 63.4191ZM158.142 74.7692C157.574 74.3592 157.038 73.9365 156.501 73.5138L152.907 82.027L150.42 88.0187L152.907 89.2L155.42 90.0188L157.869 84.0567L161.419 75.5256L159.361 75.2677C158.922 75.1906 158.507 75.0206 158.142 74.7692Z" fill="white"/>
<line x1="68" y1="241" x2="68" y2="145" stroke="white" stroke-width="8" stroke-linecap="round"/>
<line x1="69.1094" y1="144.453" x2="95.453" y2="126.891" stroke="white" stroke-width="8" stroke-linecap="round"/>
<line x1="236.353" y1="144.332" x2="224.332" y2="133.647" stroke="white" stroke-width="8" stroke-linecap="round"/>
<line x1="151.523" y1="290.417" x2="68.417" y2="241.477" stroke="white" stroke-width="8" stroke-linecap="round"/>
<line x1="151.469" y1="290.537" x2="236.537" y2="241.531" stroke="white" stroke-width="8" stroke-linecap="round"/>
<line x1="237" y1="241" x2="237" y2="145" stroke="white" stroke-width="8" stroke-linecap="round"/>
<line x1="149.5" y1="152" x2="149.5" y2="179" stroke="black" stroke-width="11"/>
</svg>
