<svg width="529" height="124" viewBox="0 0 529 124" fill="none" xmlns="http://www.w3.org/2000/svg">
<path d="M0 57.5C0 25.7436 25.7436 0 57.5 0H528.192V66.5C528.192 98.2564 502.449 124 470.692 124H0V57.5Z" fill="white" fill-opacity="0.7"/>
<path d="M84.9733 95.9214H94.9253V98.3534H84.9733V95.9214ZM99.7233 95.9214H109.675V98.3534H99.7233V95.9214ZM114.473 95.9214H124.425V98.3534H114.473V95.9214ZM129.223 95.9214H139.175V98.3534H129.223V95.9214ZM143.973 95.9214H153.925V98.3534H143.973V95.9214ZM158.723 95.9214H168.675V98.3534H158.723V95.9214ZM173.473 95.9214H183.425V98.3534H173.473V95.9214ZM207.551 98.0334C207.551 99.8254 207.114 101.425 206.239 102.833C205.386 104.241 204.234 105.34 202.783 106.129C201.354 106.919 199.818 107.313 198.175 107.313C195.935 107.313 194.015 106.823 192.415 105.841C190.815 104.839 189.599 103.505 188.767 101.841C187.957 100.177 187.551 98.3428 187.551 96.3374C187.551 94.2041 188.021 92.2521 188.959 90.4814C189.898 88.7108 191.21 87.3134 192.895 86.2894C194.581 85.2654 196.501 84.7534 198.655 84.7534C199.85 84.7534 201.034 84.9774 202.207 85.4254C203.402 85.8734 204.373 86.5134 205.119 87.3454C205.866 88.1774 206.218 89.1374 206.175 90.2254L203.775 90.2574C203.775 89.5961 203.509 89.0414 202.975 88.5934C202.442 88.1241 201.77 87.7721 200.959 87.5374C200.17 87.3028 199.381 87.1854 198.591 87.1854C197.034 87.1854 195.605 87.6121 194.303 88.4654C193.023 89.3188 192.01 90.4494 191.263 91.8574C190.538 93.2654 190.175 94.7694 190.175 96.3694C190.175 97.9054 190.463 99.3241 191.039 100.625C191.637 101.905 192.533 102.94 193.727 103.729C194.943 104.497 196.447 104.881 198.239 104.881C199.37 104.881 200.458 104.593 201.503 104.017C202.549 103.441 203.391 102.652 204.031 101.649C204.693 100.647 205.023 99.5588 205.023 98.3854V97.7774H197.471V95.3454H207.551V98.0334ZM221.584 85.0094H235.92V87.4414H224.144V94.1294H232.816V96.5614H224.144V104.561H236.528V106.993H221.584V85.0094ZM250.302 85.0094H264.638V87.4414H252.862V94.1294H261.534V96.5614H252.862V104.561H265.246V106.993H250.302V85.0094ZM281.645 85.0094V94.7054L282.605 94.6734C283.394 94.6521 284.002 94.5454 284.429 94.3534C284.877 94.1401 285.314 93.7668 285.741 93.2334C286.338 92.5294 287.042 91.4521 287.853 90.0014C288.258 89.2548 289.08 87.5908 290.317 85.0094H293.453C293.026 85.7561 292.397 86.9508 291.565 88.5934C290.861 89.9374 290.349 90.9081 290.029 91.5054L289.613 92.2094C289.208 92.9348 288.802 93.5854 288.397 94.1614C288.354 94.2254 288.173 94.4708 287.853 94.8974C287.533 95.3028 287.213 95.6334 286.893 95.8894L292.589 104.049C292.781 104.305 292.941 104.487 293.069 104.593C293.197 104.679 293.336 104.721 293.485 104.721C293.634 104.721 293.762 104.7 293.869 104.657C293.976 104.593 294.082 104.519 294.189 104.433L295.373 106.321C294.861 106.833 294.221 107.089 293.453 107.089C292.365 107.089 291.48 106.652 290.797 105.777L284.557 96.9774C283.789 97.1908 282.84 97.2974 281.709 97.2974V106.961H279.021V85.0094H281.645ZM314.535 107.633C313.255 107.633 312.05 107.388 310.919 106.897C309.789 106.407 308.829 105.724 308.039 104.849C307.271 103.975 306.77 102.983 306.535 101.873L308.903 100.881C309.245 102.225 309.959 103.281 311.047 104.049C312.135 104.817 313.298 105.201 314.535 105.201C315.858 105.201 316.978 104.796 317.895 103.985C318.813 103.153 319.271 102.076 319.271 100.753C319.271 99.8361 319.005 99.0788 318.471 98.4814C317.938 97.8841 316.999 97.2654 315.655 96.6254C313.949 95.7934 312.647 95.1214 311.751 94.6094C310.877 94.0761 310.141 93.4254 309.543 92.6574C308.967 91.8681 308.679 90.9294 308.679 89.8414C308.679 88.7961 308.957 87.8681 309.511 87.0574C310.087 86.2254 310.845 85.5854 311.783 85.1374C312.743 84.6681 313.767 84.4334 314.855 84.4334C315.773 84.4334 316.626 84.6254 317.415 85.0094C318.226 85.3721 318.866 85.8628 319.335 86.4814C319.826 87.1001 320.071 87.7614 320.071 88.4654C320.071 88.5721 320.05 88.7534 320.007 89.0094L317.511 88.8494C317.597 88.5081 317.501 88.1881 317.223 87.8894C316.967 87.5694 316.605 87.3241 316.135 87.1534C315.666 86.9614 315.218 86.8654 314.791 86.8654C313.853 86.8654 313.031 87.1534 312.327 87.7294C311.645 88.2841 311.303 88.9561 311.303 89.7454C311.303 90.3854 311.527 90.9614 311.975 91.4734C312.445 91.9854 312.989 92.4334 313.607 92.8174C314.226 93.1801 315.026 93.6068 316.007 94.0974L317.159 94.6734C318.845 95.5908 320.05 96.5081 320.775 97.4254C321.522 98.3428 321.895 99.4628 321.895 100.785C321.895 102.108 321.554 103.292 320.871 104.337C320.21 105.383 319.314 106.193 318.183 106.769C317.053 107.345 315.837 107.633 314.535 107.633ZM325.692 95.9214H335.644V98.3534H325.692V95.9214ZM340.442 95.9214H350.394V98.3534H340.442V95.9214ZM355.192 95.9214H365.144V98.3534H355.192V95.9214ZM369.942 95.9214H379.894V98.3534H369.942V95.9214ZM384.692 95.9214H394.644V98.3534H384.692V95.9214ZM399.442 95.9214H409.394V98.3534H399.442V95.9214ZM414.192 95.9214H424.144V98.3534H414.192V95.9214Z" fill="black"/>
<path d="M109.354 28.125H98.3543L98.8543 24.325H124.854L124.354 28.125H113.354L109.304 58.675H105.354L109.354 28.125ZM134.504 22.275L132.654 35.825C134.787 33.7917 137.354 32.775 140.354 32.775C142.754 32.775 144.57 33.3917 145.804 34.625C147.07 35.8583 147.704 37.575 147.704 39.775C147.704 40.075 147.67 40.5917 147.604 41.325L145.304 58.675H141.354L143.554 41.675C143.62 40.9417 143.654 40.4417 143.654 40.175C143.654 38.975 143.37 38.0583 142.804 37.425C142.237 36.7917 141.287 36.475 139.954 36.475C138.387 36.475 137.02 36.8583 135.854 37.625C134.72 38.3583 133.454 39.5417 132.054 41.175L129.704 58.675H125.704L130.504 22.275H134.504ZM156.163 47.675C156.129 47.975 156.113 48.4417 156.113 49.075C156.113 53.3417 158.079 55.475 162.013 55.475C163.413 55.475 164.763 55.2583 166.063 54.825C167.363 54.3583 168.713 53.6417 170.113 52.675L171.713 55.875C170.413 56.8417 168.863 57.6417 167.063 58.275C165.263 58.875 163.479 59.175 161.713 59.175C158.646 59.175 156.263 58.225 154.563 56.325C152.896 54.425 152.063 51.925 152.063 48.825C152.063 48.0583 152.113 47.275 152.213 46.475C152.546 44.1083 153.263 41.875 154.363 39.775C155.496 37.675 156.963 35.9917 158.763 34.725C160.563 33.425 162.596 32.775 164.863 32.775C166.596 32.775 168.146 33.175 169.513 33.975C170.913 34.775 171.996 35.8917 172.763 37.325C173.529 38.725 173.913 40.325 173.913 42.125C173.913 42.4583 173.879 42.9917 173.813 43.725C173.579 45.0583 173.329 46.375 173.063 47.675H156.163ZM169.863 43.875L169.913 43.275C169.979 42.7417 170.013 42.3583 170.013 42.125C170.013 40.4583 169.513 39.1083 168.513 38.075C167.513 37.0083 166.246 36.475 164.713 36.475C163.013 36.475 161.446 37.125 160.013 38.425C158.579 39.725 157.529 41.575 156.863 43.975L169.863 43.875ZM223.207 44.775C222.841 47.575 221.857 50.075 220.257 52.275C218.691 54.4417 216.741 56.1417 214.407 57.375C212.107 58.575 209.724 59.175 207.257 59.175C204.191 59.175 201.591 58.5417 199.457 57.275C197.324 56.0083 195.724 54.275 194.657 52.075C193.591 49.875 193.057 47.4083 193.057 44.675C193.057 44.0417 193.124 43.0917 193.257 41.825C193.691 38.525 194.791 35.5083 196.557 32.775C198.324 30.0417 200.574 27.8917 203.307 26.325C206.041 24.725 209.024 23.925 212.257 23.925C213.991 23.925 215.657 24.2417 217.257 24.875C218.891 25.475 220.224 26.3583 221.257 27.525C222.291 28.6583 222.807 29.9917 222.807 31.525C222.807 31.7583 222.774 32.1083 222.707 32.575L219.107 32.425C219.241 31.3917 218.957 30.525 218.257 29.825C217.557 29.125 216.641 28.6083 215.507 28.275C214.374 27.9083 213.224 27.725 212.057 27.725C209.657 27.725 207.374 28.4083 205.207 29.775C203.041 31.1083 201.241 32.8917 199.807 35.125C198.407 37.3583 197.541 39.7417 197.207 42.275C197.107 43.075 197.057 43.875 197.057 44.675C197.057 47.8083 197.924 50.375 199.657 52.375C201.391 54.375 204.007 55.375 207.507 55.375C209.241 55.375 210.974 54.925 212.707 54.025C214.441 53.0917 215.907 51.8417 217.107 50.275C218.341 48.675 219.074 46.9583 219.307 45.125L219.407 44.275H208.007L208.507 40.475H223.757L223.207 44.775ZM236.558 59.125C233.591 59.125 231.308 58.0917 229.708 56.025C228.108 53.9583 227.308 51.375 227.308 48.275C227.308 47.475 227.358 46.675 227.458 45.875C227.791 43.375 228.575 41.1417 229.808 39.175C231.041 37.175 232.625 35.6083 234.558 34.475C236.525 33.3417 238.708 32.775 241.108 32.775C241.875 32.775 242.808 32.825 243.908 32.925C245.041 32.9917 245.991 33.0917 246.758 33.225H250.108L247.758 51.125C247.691 51.925 247.658 52.475 247.658 52.775C247.658 54.575 248.125 55.925 249.058 56.825L246.308 59.225C245.575 58.625 245.041 58.025 244.708 57.425C244.375 56.7917 244.091 56.0917 243.858 55.325C243.158 56.4917 242.108 57.425 240.708 58.125C239.308 58.7917 237.925 59.125 236.558 59.125ZM236.758 55.425C238.091 55.425 239.308 55.0583 240.408 54.325C241.541 53.5917 242.425 52.6583 243.058 51.525C243.625 50.6917 243.975 49.7917 244.108 48.825L245.758 36.825L243.958 36.675C242.358 36.5417 241.241 36.475 240.608 36.475C238.175 36.475 236.125 37.4083 234.458 39.275C232.791 41.1083 231.775 43.425 231.408 46.225C231.308 46.8583 231.258 47.525 231.258 48.225C231.258 50.2917 231.725 52.0083 232.658 53.375C233.591 54.7417 234.958 55.425 236.758 55.425ZM267.474 32.775C268.341 32.775 269.474 32.9583 270.874 33.325L270.424 37.175C269.291 36.8417 268.307 36.675 267.474 36.675C265.874 36.675 264.607 37.0917 263.674 37.925C262.607 38.5583 261.607 39.6083 260.674 41.075L258.324 58.675H254.324L256.674 40.875C256.741 40.475 256.774 39.9083 256.774 39.175C256.774 37.4083 256.324 36.0917 255.424 35.225L258.274 32.775C258.741 33.075 259.174 33.5417 259.574 34.175C260.007 34.775 260.324 35.425 260.524 36.125C261.257 35.2583 262.074 34.5083 262.974 33.875C264.341 33.1417 265.841 32.775 267.474 32.775ZM280.159 59.125C277.259 59.125 275.009 58.1083 273.409 56.075C271.809 54.0083 271.009 51.4083 271.009 48.275C271.009 47.5083 271.059 46.725 271.159 45.925C271.492 43.4583 272.259 41.225 273.459 39.225C274.659 37.225 276.226 35.6583 278.159 34.525C280.092 33.3917 282.259 32.825 284.659 32.825C285.926 32.825 287.659 32.9583 289.859 33.225L291.409 22.225H295.109L291.309 51.175C291.242 51.575 291.209 52.1417 291.209 52.875C291.209 54.6083 291.676 55.9583 292.609 56.925L290.059 59.175C289.492 58.775 289.009 58.275 288.609 57.675C288.242 57.0417 287.976 56.375 287.809 55.675C286.809 56.875 285.642 57.7583 284.309 58.325C282.976 58.8583 281.592 59.125 280.159 59.125ZM280.459 55.425C281.826 55.425 283.059 55.0917 284.159 54.425C285.292 53.725 286.192 52.775 286.859 51.575C287.392 50.875 287.742 49.975 287.909 48.875L289.559 36.975C287.326 36.675 285.526 36.525 284.159 36.525C281.726 36.525 279.676 37.4417 278.009 39.275C276.342 41.1083 275.326 43.4083 274.959 46.175C274.859 46.875 274.809 47.5417 274.809 48.175C274.809 50.3417 275.292 52.0917 276.259 53.425C277.226 54.7583 278.626 55.425 280.459 55.425ZM301.475 47.675C301.442 47.975 301.425 48.4417 301.425 49.075C301.425 53.3417 303.392 55.475 307.325 55.475C308.725 55.475 310.075 55.2583 311.375 54.825C312.675 54.3583 314.025 53.6417 315.425 52.675L317.025 55.875C315.725 56.8417 314.175 57.6417 312.375 58.275C310.575 58.875 308.792 59.175 307.025 59.175C303.958 59.175 301.575 58.225 299.875 56.325C298.208 54.425 297.375 51.925 297.375 48.825C297.375 48.0583 297.425 47.275 297.525 46.475C297.858 44.1083 298.575 41.875 299.675 39.775C300.808 37.675 302.275 35.9917 304.075 34.725C305.875 33.425 307.908 32.775 310.175 32.775C311.908 32.775 313.458 33.175 314.825 33.975C316.225 34.775 317.308 35.8917 318.075 37.325C318.842 38.725 319.225 40.325 319.225 42.125C319.225 42.4583 319.192 42.9917 319.125 43.725C318.892 45.0583 318.642 46.375 318.375 47.675H301.475ZM315.175 43.875L315.225 43.275C315.292 42.7417 315.325 42.3583 315.325 42.125C315.325 40.4583 314.825 39.1083 313.825 38.075C312.825 37.0083 311.558 36.475 310.025 36.475C308.325 36.475 306.758 37.125 305.325 38.425C303.892 39.725 302.842 41.575 302.175 43.975L315.175 43.875ZM325.519 40.825C325.586 40.0917 325.619 39.5417 325.619 39.175C325.619 37.5083 325.119 36.175 324.119 35.175L326.869 32.775C327.536 33.2083 328.069 33.775 328.469 34.475C328.869 35.175 329.153 35.925 329.319 36.725C331.719 34.125 334.486 32.825 337.619 32.825C339.953 32.825 341.786 33.425 343.119 34.625C344.486 35.825 345.169 37.5583 345.169 39.825C345.169 40.0917 345.136 40.5917 345.069 41.325L342.769 58.675L338.769 58.725L341.019 41.675C341.086 41.0083 341.119 40.5083 341.119 40.175C341.119 39.0083 340.819 38.1083 340.219 37.475C339.653 36.8417 338.669 36.525 337.269 36.525C335.736 36.525 334.403 36.9083 333.269 37.675C332.169 38.4083 330.919 39.575 329.519 41.175L327.169 58.675H323.169L325.519 40.825ZM353.026 33.575L357.026 33.625L353.726 58.675L349.726 58.625L353.026 33.575ZM355.776 28.725C355.142 28.725 354.592 28.4917 354.126 28.025C353.659 27.525 353.426 26.9417 353.426 26.275C353.426 25.575 353.692 24.9417 354.226 24.375C354.792 23.775 355.409 23.475 356.076 23.475C356.742 23.475 357.309 23.725 357.776 24.225C358.276 24.725 358.526 25.3083 358.526 25.975C358.526 26.675 358.226 27.3083 357.626 27.875C357.059 28.4417 356.442 28.725 355.776 28.725ZM364.142 40.825C364.209 40.0917 364.242 39.5417 364.242 39.175C364.242 37.5083 363.742 36.175 362.742 35.175L365.492 32.775C366.159 33.2083 366.692 33.775 367.092 34.475C367.492 35.175 367.776 35.925 367.942 36.725C370.342 34.125 373.109 32.825 376.242 32.825C378.576 32.825 380.409 33.425 381.742 34.625C383.109 35.825 383.792 37.5583 383.792 39.825C383.792 40.0917 383.759 40.5917 383.692 41.325L381.392 58.675L377.392 58.725L379.642 41.675C379.709 41.0083 379.742 40.5083 379.742 40.175C379.742 39.0083 379.442 38.1083 378.842 37.475C378.276 36.8417 377.292 36.525 375.892 36.525C374.359 36.525 373.026 36.9083 371.892 37.675C370.792 38.4083 369.542 39.575 368.142 41.175L365.792 58.675H361.792L364.142 40.825ZM397.499 71.925C394.266 71.925 391.732 71.275 389.899 69.975C388.066 68.675 387.149 66.575 387.149 63.675C387.149 63.075 387.199 62.425 387.299 61.725C387.432 60.5583 387.766 59.0917 388.299 57.325C387.832 56.8583 387.449 56.275 387.149 55.575C386.849 54.8417 386.699 54.075 386.699 53.275C386.699 52.2083 387.066 51.025 387.799 49.725C388.532 48.425 389.532 47.5083 390.799 46.975C391.132 46.875 391.516 46.8083 391.949 46.775C392.382 46.7417 392.716 46.7083 392.949 46.675C392.482 45.6417 392.249 44.4917 392.249 43.225C392.249 41.125 392.732 39.275 393.699 37.675C394.699 36.075 395.999 34.8417 397.599 33.975C399.232 33.075 400.949 32.625 402.749 32.625C404.016 32.625 405.149 32.8583 406.149 33.325L414.499 33.275L413.999 37.125L410.449 37.025C411.016 38.0917 411.299 39.325 411.299 40.725C411.299 41.025 411.266 41.475 411.199 42.075C410.966 43.9083 410.349 45.4917 409.349 46.825C408.349 48.1583 407.082 49.1917 405.549 49.925C404.049 50.625 402.432 50.975 400.699 50.975C398.932 50.975 397.416 50.625 396.149 49.925L394.449 49.875C393.749 49.875 393.266 49.9583 392.999 50.125C392.432 50.225 391.882 50.5417 391.349 51.075C390.816 51.575 390.549 52.2583 390.549 53.125C390.549 53.7583 390.816 54.1917 391.349 54.425C391.916 54.6583 392.749 54.775 393.849 54.775L397.349 54.675L401.049 54.575C404.116 54.575 406.566 55.175 408.399 56.375C410.266 57.575 411.199 59.3917 411.199 61.825C411.199 62.0917 411.166 62.525 411.099 63.125C410.699 66.225 409.199 68.4583 406.599 69.825C403.999 71.225 400.966 71.925 397.499 71.925ZM400.949 47.275C402.716 47.275 404.166 46.7583 405.299 45.725C406.466 44.6583 407.166 43.325 407.399 41.725C407.432 41.5583 407.449 41.2917 407.449 40.925C407.449 39.5583 406.999 38.4583 406.099 37.625C405.232 36.7583 404.066 36.325 402.599 36.325C400.866 36.325 399.416 36.875 398.249 37.975C397.082 39.0417 396.382 40.425 396.149 42.125C396.116 42.325 396.099 42.5917 396.099 42.925C396.099 44.2917 396.532 45.3583 397.399 46.125C398.266 46.8917 399.449 47.275 400.949 47.275ZM397.699 68.275C400.299 68.275 402.482 67.825 404.249 66.925C406.016 66.025 407.016 64.6417 407.249 62.775C407.282 62.6083 407.299 62.3917 407.299 62.125C407.299 60.525 406.566 59.475 405.099 58.975C403.632 58.5083 401.866 58.275 399.799 58.275C398.932 58.275 398.282 58.2917 397.849 58.325C397.516 58.325 397.032 58.3417 396.399 58.375C395.766 58.375 394.849 58.375 393.649 58.375C393.282 58.375 392.532 58.325 391.399 58.225L391.099 61.925C391.066 62.2917 391.049 62.8417 391.049 63.575C391.049 65.075 391.482 66.225 392.349 67.025C393.249 67.8583 395.032 68.275 397.699 68.275Z" fill="black"/>
</svg>
