<svg width="323" height="323" viewBox="0 0 323 323" fill="none" xmlns="http://www.w3.org/2000/svg">
<path d="M319 161.5C319 248.485 248.485 319 161.5 319C74.5152 319 4 248.485 4 161.5C4 74.5152 74.5152 4 161.5 4C248.485 4 319 74.5152 319 161.5Z" fill="#FFFA8C" stroke="black" stroke-width="8"/>
<path d="M105.733 165.267C100.211 165.267 95.7334 169.744 95.7334 175.267L95.7334 205.133V239.229C95.7334 242.8 97.6382 246.101 100.731 247.887L159.731 281.976C162.826 283.765 166.641 283.765 169.736 281.976L228.736 247.887C231.829 246.101 233.733 242.8 233.733 239.229L233.733 175.267C233.733 169.744 229.256 165.267 223.733 165.267L164.733 165.267H105.733Z" fill="black"/>
<path fill-rule="evenodd" clip-rule="evenodd" d="M167.6 100.928C167.6 90.6033 162.764 80.7019 154.156 73.4016C145.548 66.1012 133.873 61.9999 121.7 61.9999H86V92.2769C86 102.601 90.8359 112.503 99.4438 119.803C108.052 127.103 119.727 131.205 131.9 131.205H157.4V191.759H167.6V157.156H193.1C205.273 157.156 216.948 153.055 225.556 145.755C234.164 138.454 239 128.553 239 118.229V87.9516H203.3C188.877 87.9516 176.015 93.5918 167.6 102.407V100.928ZM155.911 115.166C155.911 115.166 130.526 93.6812 125.311 89.2146C120.096 84.748 113.647 91.4921 118.089 95.3392C122.532 99.1864 148.689 121.291 148.689 121.291L155.911 115.166ZM176.311 147.243C176.311 147.243 205.899 122.168 206.911 121.291C207.923 120.414 208 119.414 207.5 118.414C207 117.414 206.5 116.734 205.615 115.914C204.73 115.094 203.5 114.671 203 114.414C202.5 114.157 200.983 113.914 199.689 115.166C198.395 116.419 169.089 141.118 169.089 141.118L176.311 147.243Z" fill="#4CAF50"/>
<path d="M138 211C139.167 204.667 144.6 192 157 192" stroke="white" stroke-width="5" stroke-linecap="round"/>
<path d="M147.5 229.5C147.5 208.944 159.5 192.5 159.5 192.5" stroke="white" stroke-width="5" stroke-linecap="round"/>
<path d="M163.5 193.5C163.5 213.5 163.5 220.5 163.5 247.5" stroke="white" stroke-width="5" stroke-linecap="round"/>
<path d="M178.5 228.5C178.5 208.5 166.5 192.5 166.5 192.5" stroke="white" stroke-width="5" stroke-linecap="round"/>
<path d="M188.5 211.5C187.333 205.167 181.9 192.5 169.5 192.5" stroke="white" stroke-width="5" stroke-linecap="round"/>
<circle cx="120" cy="186" r="3" fill="#FFFA8C"/>
<circle cx="121.5" cy="223.5" r="7.5" fill="#FFFA8C"/>
<circle cx="175.5" cy="262.5" r="7.5" fill="#FFFA8C"/>
<circle cx="191" cy="237" r="4" fill="#FFFA8C"/>
<circle cx="190.5" cy="184.5" r="7.5" fill="#FFFA8C"/>
<path d="M217 211.342C217 214.655 214.314 217.342 211 217.342C207.686 217.342 205 214.655 205 211.342C205 208.028 207.686 205.342 211 205.342C214.314 205.342 217 208.028 217 211.342Z" fill="#FFFA8C"/>
<circle cx="141" cy="251" r="4" fill="#FFFA8C"/>
</svg>
