<svg width="177" height="177" viewBox="0 0 177 177" fill="none" xmlns="http://www.w3.org/2000/svg">
<g clip-path="url(#clip0_2441_6)">
<path fill-rule="evenodd" clip-rule="evenodd" d="M0 88.5C0 65.0283 9.32408 42.518 25.9211 25.9211C42.518 9.32408 65.0283 0 88.5 0C111.972 0 134.482 9.32408 151.079 25.9211C167.676 42.518 177 65.0283 177 88.5C177 111.972 167.676 134.482 151.079 151.079C134.482 167.676 111.972 177 88.5 177C65.0283 177 42.518 167.676 25.9211 151.079C9.32408 134.482 0 111.972 0 88.5H0ZM83.4496 126.378L134.402 62.6816L125.198 55.3184L81.7504 109.61L50.976 83.9688L43.424 93.0312L83.4496 126.39V126.378Z" fill="#4ECB71"/>
</g>
<defs>
<clipPath id="clip0_2441_6">
<rect width="177" height="177" fill="white"/>
</clipPath>
</defs>
</svg>
