<svg width="146" height="146" viewBox="0 0 146 146" fill="none" xmlns="http://www.w3.org/2000/svg">
<path d="M73 0C32.85 0 0 32.85 0 73C0 113.15 32.85 146 73 146C113.15 146 146 113.15 146 73C146 32.85 113.15 0 73 0ZM55.48 110.96C53.874 110.96 51.684 110.376 49.64 109.5L45.479 119.72L37.157 116.8L38.325 113.953C47.085 91.907 57.159 66.795 94.9 58.4C94.9 58.4 51.1 58.4 36.865 98.915C36.865 98.915 29.2 91.25 29.2 82.49C29.2 73.73 37.96 55.115 59.86 50.735C66.065 49.494 73 48.545 79.862 47.45C97.09 45.114 113.661 42.778 116.8 36.5C116.8 36.5 103.66 110.96 55.48 110.96Z" fill="#4CAF50"/>
</svg>
